<svg width="24" height="19" viewBox="0 0 24 19" fill="none" xmlns="http://www.w3.org/2000/svg">
<path d="M19.92 0H4.08C2.99889 0.00313281 1.96296 0.429517 1.1985 1.18602C0.434038 1.94252 0.00316579 2.96765 0 4.0375V14.9625C0.00316579 16.0323 0.434038 17.0575 1.1985 17.814C1.96296 18.5705 2.99889 18.9969 4.08 19H19.92C21.0011 18.9969 22.037 18.5705 22.8015 17.814C23.566 17.0575 23.9968 16.0323 24 14.9625V4.0375C23.9968 2.96765 23.566 1.94252 22.8015 1.18602C22.037 0.429517 21.0011 0.00313281 19.92 0ZM19.692 6.68563L13.884 10.45C13.3368 10.8329 12.6821 11.0364 12.012 11.0319C11.3202 11.0324 10.6453 10.8208 10.08 10.4262L4.308 6.68563C4.20872 6.62169 4.12314 6.53903 4.05614 6.44236C3.98915 6.34569 3.94205 6.23691 3.91753 6.12223C3.89302 6.00755 3.89157 5.88922 3.91327 5.77398C3.93497 5.65875 3.97939 5.54887 4.044 5.45063C4.10861 5.35238 4.19214 5.26769 4.28983 5.20139C4.38751 5.13509 4.49744 5.08848 4.61332 5.06422C4.72921 5.03996 4.84879 5.03853 4.96524 5.06C5.08169 5.08148 5.19272 5.12544 5.292 5.18937L11.1 8.95375C11.3582 9.13914 11.669 9.23898 11.988 9.23898C12.307 9.23898 12.6178 9.13914 12.876 8.95375L18.708 5.16563C18.8073 5.10169 18.9183 5.05773 19.0348 5.03625C19.1512 5.01478 19.2708 5.01621 19.3867 5.04047C19.5026 5.06473 19.6125 5.11134 19.7102 5.17764C19.8079 5.24394 19.8914 5.32863 19.956 5.42687C20.0206 5.52512 20.065 5.635 20.0867 5.75023C20.1084 5.86547 20.107 5.9838 20.0825 6.09848C20.058 6.21316 20.0109 6.32194 19.9439 6.41861C19.8769 6.51528 19.7913 6.59794 19.692 6.66187V6.68563Z" fill="white"/>
</svg>
