<svg width="24" height="24" viewBox="0 0 24 24" fill="none" xmlns="http://www.w3.org/2000/svg">
<path fill-rule="evenodd" clip-rule="evenodd" d="M12.4805 0C17.9107 1.39829e-09 20.6255 0.000487089 22.3125 1.6875C23.9995 3.37452 24 6.08927 24 11.5195V12.4805C24 17.9107 23.9995 20.6255 22.3125 22.3125C20.6255 23.9995 17.9107 24 12.4805 24H11.5195C6.08927 24 3.37452 23.9995 1.6875 22.3125C0.000487089 20.6255 1.3983e-09 17.9107 0 12.4805V11.5195C1.39509e-09 6.08927 0.000482917 3.37452 1.6875 1.6875C3.37452 0.000482917 6.08927 1.3951e-09 11.5195 0H12.4805ZM4.05078 7.30078C4.18079 13.5408 7.3005 17.291 12.7705 17.291H13.0801V13.7207C15.0901 13.9207 16.6107 15.391 17.2207 17.291H20.0605C19.2805 14.451 17.2302 12.8803 15.9502 12.2803C17.2302 11.5402 19.03 9.74064 19.46 7.30078H16.8799C16.3198 9.28075 14.6601 11.081 13.0801 11.251V7.30078H10.5V14.2207C8.90006 13.8206 6.88003 11.8805 6.79004 7.30078H4.05078Z" fill="white"/>
</svg>
