<svg width="300" height="300" viewBox="0 0 300 300" fill="none" xmlns="http://www.w3.org/2000/svg">
<path d="M23.25 99.25H13.75V108.75H23.25V99.25Z" fill="white"/>
<path d="M23.25 137.25H13.75V146.75H23.25V137.25Z" fill="white"/>
<path d="M23.25 146.75H13.75V156.25H23.25V146.75Z" fill="white"/>
<path d="M23.25 165.75H13.75V175.25H23.25V165.75Z" fill="white"/>
<path d="M32.75 99.25H23.25V108.75H32.75V99.25Z" fill="white"/>
<path d="M32.75 146.75H23.25V156.25H32.75V146.75Z" fill="white"/>
<path d="M32.75 165.75H23.25V175.25H32.75V165.75Z" fill="white"/>
<path d="M32.75 184.75H23.25V194.25H32.75V184.75Z" fill="white"/>
<path d="M32.75 203.75H23.25V213.25H32.75V203.75Z" fill="white"/>
<path d="M42.25 99.25H32.75V108.75H42.25V99.25Z" fill="white"/>
<path d="M42.25 118.25H32.75V127.75H42.25V118.25Z" fill="white"/>
<path d="M42.25 137.25H32.75V146.75H42.25V137.25Z" fill="white"/>
<path d="M42.25 165.75H32.75V175.25H42.25V165.75Z" fill="white"/>
<path d="M42.25 175.25H32.75V184.75H42.25V175.25Z" fill="white"/>
<path d="M42.25 194.25H32.75V203.75H42.25V194.25Z" fill="white"/>
<path d="M51.75 89.75H42.25V99.25H51.75V89.75Z" fill="white"/>
<path d="M51.75 99.25H42.25V108.75H51.75V99.25Z" fill="white"/>
<path d="M51.75 137.25H42.25V146.75H51.75V137.25Z" fill="white"/>
<path d="M51.75 156.25H42.25V165.75H51.75V156.25Z" fill="white"/>
<path d="M51.75 175.25H42.25V184.75H51.75V175.25Z" fill="white"/>
<path d="M51.75 184.75H42.25V194.25H51.75V184.75Z" fill="white"/>
<path d="M61.25 99.25H51.75V108.75H61.25V99.25Z" fill="white"/>
<path d="M61.25 108.75H51.75V118.25H61.25V108.75Z" fill="white"/>
<path d="M61.25 118.25H51.75V127.75H61.25V118.25Z" fill="white"/>
<path d="M61.25 165.75H51.75V175.25H61.25V165.75Z" fill="white"/>
<path d="M61.25 175.25H51.75V184.75H61.25V175.25Z" fill="white"/>
<path d="M61.25 184.75H51.75V194.25H61.25V184.75Z" fill="white"/>
<path d="M70.75 89.75H61.25V99.25H70.75V89.75Z" fill="white"/>
<path d="M70.75 118.25H61.25V127.75H70.75V118.25Z" fill="white"/>
<path d="M70.75 127.75H61.25V137.25H70.75V127.75Z" fill="white"/>
<path d="M70.75 146.75H61.25V156.25H70.75V146.75Z" fill="white"/>
<path d="M80.25 89.75H70.75V99.25H80.25V89.75Z" fill="white"/>
<path d="M80.25 108.75H70.75V118.25H80.25V108.75Z" fill="white"/>
<path d="M80.25 127.75H70.75V137.25H80.25V127.75Z" fill="white"/>
<path d="M80.25 146.75H70.75V156.25H80.25V146.75Z" fill="white"/>
<path d="M80.25 165.75H70.75V175.25H80.25V165.75Z" fill="white"/>
<path d="M80.25 184.75H70.75V194.25H80.25V184.75Z" fill="white"/>
<path d="M80.25 203.75H70.75V213.25H80.25V203.75Z" fill="white"/>
<path d="M89.75 89.75H80.25V99.25H89.75V89.75Z" fill="white"/>
<path d="M89.75 156.25H80.25V165.75H89.75V156.25Z" fill="white"/>
<path d="M89.75 184.75H80.25V194.25H89.75V184.75Z" fill="white"/>
<path d="M89.75 194.25H80.25V203.75H89.75V194.25Z" fill="white"/>
<path d="M89.75 203.75H80.25V213.25H89.75V203.75Z" fill="white"/>
<path d="M99.25 23.25H89.75V32.75H99.25V23.25Z" fill="white"/>
<path d="M99.25 32.75H89.75V42.25H99.25V32.75Z" fill="white"/>
<path d="M99.25 70.75H89.75V80.25H99.25V70.75Z" fill="white"/>
<path d="M99.25 99.25H89.75V108.75H99.25V99.25Z" fill="white"/>
<path d="M99.25 118.25H89.75V127.75H99.25V118.25Z" fill="white"/>
<path d="M99.25 127.75H89.75V137.25H99.25V127.75Z" fill="white"/>
<path d="M99.25 156.25H89.75V165.75H99.25V156.25Z" fill="white"/>
<path d="M99.25 165.75H89.75V175.25H99.25V165.75Z" fill="white"/>
<path d="M99.25 175.25H89.75V184.75H99.25V175.25Z" fill="white"/>
<path d="M99.25 184.75H89.75V194.25H99.25V184.75Z" fill="white"/>
<path d="M99.25 222.75H89.75V232.25H99.25V222.75Z" fill="white"/>
<path d="M99.25 232.25H89.75V241.75H99.25V232.25Z" fill="white"/>
<path d="M99.25 251.25H89.75V260.75H99.25V251.25Z" fill="white"/>
<path d="M108.75 13.75H99.25V23.25H108.75V13.75Z" fill="white"/>
<path d="M108.75 51.75H99.25V61.25H108.75V51.75Z" fill="white"/>
<path d="M108.75 80.25H99.25V89.75H108.75V80.25Z" fill="white"/>
<path d="M108.75 89.75H99.25V99.25H108.75V89.75Z" fill="white"/>
<path d="M108.75 99.25H99.25V108.75H108.75V99.25Z" fill="white"/>
<path d="M108.75 127.75H99.25V137.25H108.75V127.75Z" fill="white"/>
<path d="M108.75 137.25H99.25V146.75H108.75V137.25Z" fill="white"/>
<path d="M108.75 146.75H99.25V156.25H108.75V146.75Z" fill="white"/>
<path d="M108.75 156.25H99.25V165.75H108.75V156.25Z" fill="white"/>
<path d="M108.75 165.75H99.25V175.25H108.75V165.75Z" fill="white"/>
<path d="M108.75 194.25H99.25V203.75H108.75V194.25Z" fill="white"/>
<path d="M108.75 203.75H99.25V213.25H108.75V203.75Z" fill="white"/>
<path d="M108.75 213.25H99.25V222.75H108.75V213.25Z" fill="white"/>
<path d="M108.75 222.75H99.25V232.25H108.75V222.75Z" fill="white"/>
<path d="M108.75 251.25H99.25V260.75H108.75V251.25Z" fill="white"/>
<path d="M108.75 260.75H99.25V270.25H108.75V260.75Z" fill="white"/>
<path d="M108.75 270.25H99.25V279.75H108.75V270.25Z" fill="white"/>
<path d="M108.75 279.75H99.25V289.25H108.75V279.75Z" fill="white"/>
<path d="M118.25 23.25H108.75V32.75H118.25V23.25Z" fill="white"/>
<path d="M118.25 32.75H108.75V42.25H118.25V32.75Z" fill="white"/>
<path d="M118.25 42.25H108.75V51.75H118.25V42.25Z" fill="white"/>
<path d="M118.25 51.75H108.75V61.25H118.25V51.75Z" fill="white"/>
<path d="M118.25 70.75H108.75V80.25H118.25V70.75Z" fill="white"/>
<path d="M118.25 80.25H108.75V89.75H118.25V80.25Z" fill="white"/>
<path d="M118.25 118.25H108.75V127.75H118.25V118.25Z" fill="white"/>
<path d="M118.25 127.75H108.75V137.25H118.25V127.75Z" fill="white"/>
<path d="M118.25 156.25H108.75V165.75H118.25V156.25Z" fill="white"/>
<path d="M118.25 175.25H108.75V184.75H118.25V175.25Z" fill="white"/>
<path d="M118.25 194.25H108.75V203.75H118.25V194.25Z" fill="white"/>
<path d="M118.25 203.75H108.75V213.25H118.25V203.75Z" fill="white"/>
<path d="M118.25 213.25H108.75V222.75H118.25V213.25Z" fill="white"/>
<path d="M118.25 241.75H108.75V251.25H118.25V241.75Z" fill="white"/>
<path d="M118.25 279.75H108.75V289.25H118.25V279.75Z" fill="white"/>
<path d="M127.75 13.75H118.25V23.25H127.75V13.75Z" fill="white"/>
<path d="M127.75 61.25H118.25V70.75H127.75V61.25Z" fill="white"/>
<path d="M127.75 99.25H118.25V108.75H127.75V99.25Z" fill="white"/>
<path d="M127.75 108.75H118.25V118.25H127.75V108.75Z" fill="white"/>
<path d="M127.75 184.75H118.25V194.25H127.75V184.75Z" fill="white"/>
<path d="M127.75 194.25H118.25V203.75H127.75V194.25Z" fill="white"/>
<path d="M127.75 222.75H118.25V232.25H127.75V222.75Z" fill="white"/>
<path d="M127.75 251.25H118.25V260.75H127.75V251.25Z" fill="white"/>
<path d="M137.25 23.25H127.75V32.75H137.25V23.25Z" fill="white"/>
<path d="M137.25 32.75H127.75V42.25H137.25V32.75Z" fill="white"/>
<path d="M137.25 61.25H127.75V70.75H137.25V61.25Z" fill="white"/>
<path d="M137.25 70.75H127.75V80.25H137.25V70.75Z" fill="white"/>
<path d="M137.25 80.25H127.75V89.75H137.25V80.25Z" fill="white"/>
<path d="M137.25 89.75H127.75V99.25H137.25V89.75Z" fill="white"/>
<path d="M137.25 108.75H127.75V118.25H137.25V108.75Z" fill="white"/>
<path d="M137.25 184.75H127.75V194.25H137.25V184.75Z" fill="white"/>
<path d="M137.25 194.25H127.75V203.75H137.25V194.25Z" fill="white"/>
<path d="M137.25 203.75H127.75V213.25H137.25V203.75Z" fill="white"/>
<path d="M137.25 213.25H127.75V222.75H137.25V213.25Z" fill="white"/>
<path d="M137.25 222.75H127.75V232.25H137.25V222.75Z" fill="white"/>
<path d="M137.25 251.25H127.75V260.75H137.25V251.25Z" fill="white"/>
<path d="M137.25 270.25H127.75V279.75H137.25V270.25Z" fill="white"/>
<path d="M146.75 13.75H137.25V23.25H146.75V13.75Z" fill="white"/>
<path d="M146.75 32.75H137.25V42.25H146.75V32.75Z" fill="white"/>
<path d="M146.75 42.25H137.25V51.75H146.75V42.25Z" fill="white"/>
<path d="M146.75 61.25H137.25V70.75H146.75V61.25Z" fill="white"/>
<path d="M146.75 80.25H137.25V89.75H146.75V80.25Z" fill="white"/>
<path d="M146.75 89.75H137.25V99.25H146.75V89.75Z" fill="white"/>
<path d="M146.75 108.75H137.25V118.25H146.75V108.75Z" fill="white"/>
<path d="M146.75 194.25H137.25V203.75H146.75V194.25Z" fill="white"/>
<path d="M146.75 222.75H137.25V232.25H146.75V222.75Z" fill="white"/>
<path d="M146.75 251.25H137.25V260.75H146.75V251.25Z" fill="white"/>
<path d="M146.75 279.75H137.25V289.25H146.75V279.75Z" fill="white"/>
<path d="M156.25 13.75H146.75V23.25H156.25V13.75Z" fill="white"/>
<path d="M156.25 32.75H146.75V42.25H156.25V32.75Z" fill="white"/>
<path d="M156.25 42.25H146.75V51.75H156.25V42.25Z" fill="white"/>
<path d="M156.25 61.25H146.75V70.75H156.25V61.25Z" fill="white"/>
<path d="M156.25 70.75H146.75V80.25H156.25V70.75Z" fill="white"/>
<path d="M156.25 80.25H146.75V89.75H156.25V80.25Z" fill="white"/>
<path d="M156.25 108.75H146.75V118.25H156.25V108.75Z" fill="white"/>
<path d="M156.25 194.25H146.75V203.75H156.25V194.25Z" fill="white"/>
<path d="M156.25 222.75H146.75V232.25H156.25V222.75Z" fill="white"/>
<path d="M156.25 251.25H146.75V260.75H156.25V251.25Z" fill="white"/>
<path d="M156.25 260.75H146.75V270.25H156.25V260.75Z" fill="white"/>
<path d="M156.25 279.75H146.75V289.25H156.25V279.75Z" fill="white"/>
<path d="M165.75 13.75H156.25V23.25H165.75V13.75Z" fill="white"/>
<path d="M165.75 32.75H156.25V42.25H165.75V32.75Z" fill="white"/>
<path d="M165.75 61.25H156.25V70.75H165.75V61.25Z" fill="white"/>
<path d="M165.75 80.25H156.25V89.75H165.75V80.25Z" fill="white"/>
<path d="M165.75 89.75H156.25V99.25H165.75V89.75Z" fill="white"/>
<path d="M165.75 213.25H156.25V222.75H165.75V213.25Z" fill="white"/>
<path d="M165.75 251.25H156.25V260.75H165.75V251.25Z" fill="white"/>
<path d="M165.75 270.25H156.25V279.75H165.75V270.25Z" fill="white"/>
<path d="M165.75 279.75H156.25V289.25H165.75V279.75Z" fill="white"/>
<path d="M175.25 13.75H165.75V23.25H175.25V13.75Z" fill="white"/>
<path d="M175.25 23.25H165.75V32.75H175.25V23.25Z" fill="white"/>
<path d="M175.25 32.75H165.75V42.25H175.25V32.75Z" fill="white"/>
<path d="M175.25 61.25H165.75V70.75H175.25V61.25Z" fill="white"/>
<path d="M175.25 70.75H165.75V80.25H175.25V70.75Z" fill="white"/>
<path d="M175.25 108.75H165.75V118.25H175.25V108.75Z" fill="white"/>
<path d="M175.25 194.25H165.75V203.75H175.25V194.25Z" fill="white"/>
<path d="M175.25 213.25H165.75V222.75H175.25V213.25Z" fill="white"/>
<path d="M175.25 222.75H165.75V232.25H175.25V222.75Z" fill="white"/>
<path d="M175.25 232.25H165.75V241.75H175.25V232.25Z" fill="white"/>
<path d="M175.25 270.25H165.75V279.75H175.25V270.25Z" fill="white"/>
<path d="M175.25 279.75H165.75V289.25H175.25V279.75Z" fill="white"/>
<path d="M184.75 32.75H175.25V42.25H184.75V32.75Z" fill="white"/>
<path d="M184.75 42.25H175.25V51.75H184.75V42.25Z" fill="white"/>
<path d="M184.75 80.25H175.25V89.75H184.75V80.25Z" fill="white"/>
<path d="M184.75 99.25H175.25V108.75H184.75V99.25Z" fill="white"/>
<path d="M184.75 108.75H175.25V118.25H184.75V108.75Z" fill="white"/>
<path d="M184.75 194.25H175.25V203.75H184.75V194.25Z" fill="white"/>
<path d="M184.75 203.75H175.25V213.25H184.75V203.75Z" fill="white"/>
<path d="M184.75 213.25H175.25V222.75H184.75V213.25Z" fill="white"/>
<path d="M184.75 222.75H175.25V232.25H184.75V222.75Z" fill="white"/>
<path d="M184.75 232.25H175.25V241.75H184.75V232.25Z" fill="white"/>
<path d="M184.75 251.25H175.25V260.75H184.75V251.25Z" fill="white"/>
<path d="M184.75 260.75H175.25V270.25H184.75V260.75Z" fill="white"/>
<path d="M184.75 279.75H175.25V289.25H184.75V279.75Z" fill="white"/>
<path d="M194.25 13.75H184.75V23.25H194.25V13.75Z" fill="white"/>
<path d="M194.25 23.25H184.75V32.75H194.25V23.25Z" fill="white"/>
<path d="M194.25 61.25H184.75V70.75H194.25V61.25Z" fill="white"/>
<path d="M194.25 70.75H184.75V80.25H194.25V70.75Z" fill="white"/>
<path d="M194.25 89.75H184.75V99.25H194.25V89.75Z" fill="white"/>
<path d="M194.25 108.75H184.75V118.25H194.25V108.75Z" fill="white"/>
<path d="M194.25 127.75H184.75V137.25H194.25V127.75Z" fill="white"/>
<path d="M194.25 137.25H184.75V146.75H194.25V137.25Z" fill="white"/>
<path d="M194.25 156.25H184.75V165.75H194.25V156.25Z" fill="white"/>
<path d="M194.25 175.25H184.75V184.75H194.25V175.25Z" fill="white"/>
<path d="M194.25 194.25H184.75V203.75H194.25V194.25Z" fill="white"/>
<path d="M194.25 241.75H184.75V251.25H194.25V241.75Z" fill="white"/>
<path d="M194.25 260.75H184.75V270.25H194.25V260.75Z" fill="white"/>
<path d="M194.25 279.75H184.75V289.25H194.25V279.75Z" fill="white"/>
<path d="M203.75 32.75H194.25V42.25H203.75V32.75Z" fill="white"/>
<path d="M203.75 42.25H194.25V51.75H203.75V42.25Z" fill="white"/>
<path d="M203.75 61.25H194.25V70.75H203.75V61.25Z" fill="white"/>
<path d="M203.75 89.75H194.25V99.25H203.75V89.75Z" fill="white"/>
<path d="M203.75 99.25H194.25V108.75H203.75V99.25Z" fill="white"/>
<path d="M203.75 108.75H194.25V118.25H203.75V108.75Z" fill="white"/>
<path d="M203.75 127.75H194.25V137.25H203.75V127.75Z" fill="white"/>
<path d="M203.75 184.75H194.25V194.25H203.75V184.75Z" fill="white"/>
<path d="M203.75 194.25H194.25V203.75H203.75V194.25Z" fill="white"/>
<path d="M203.75 203.75H194.25V213.25H203.75V203.75Z" fill="white"/>
<path d="M203.75 213.25H194.25V222.75H203.75V213.25Z" fill="white"/>
<path d="M203.75 222.75H194.25V232.25H203.75V222.75Z" fill="white"/>
<path d="M203.75 232.25H194.25V241.75H203.75V232.25Z" fill="white"/>
<path d="M203.75 241.75H194.25V251.25H203.75V241.75Z" fill="white"/>
<path d="M213.25 13.75H203.75V23.25H213.25V13.75Z" fill="white"/>
<path d="M213.25 23.25H203.75V32.75H213.25V23.25Z" fill="white"/>
<path d="M213.25 51.75H203.75V61.25H213.25V51.75Z" fill="white"/>
<path d="M213.25 70.75H203.75V80.25H213.25V70.75Z" fill="white"/>
<path d="M213.25 80.25H203.75V89.75H213.25V80.25Z" fill="white"/>
<path d="M213.25 89.75H203.75V99.25H213.25V89.75Z" fill="white"/>
<path d="M213.25 99.25H203.75V108.75H213.25V99.25Z" fill="white"/>
<path d="M213.25 108.75H203.75V118.25H213.25V108.75Z" fill="white"/>
<path d="M213.25 118.25H203.75V127.75H213.25V118.25Z" fill="white"/>
<path d="M213.25 127.75H203.75V137.25H213.25V127.75Z" fill="white"/>
<path d="M213.25 146.75H203.75V156.25H213.25V146.75Z" fill="white"/>
<path d="M213.25 156.25H203.75V165.75H213.25V156.25Z" fill="white"/>
<path d="M213.25 165.75H203.75V175.25H213.25V165.75Z" fill="white"/>
<path d="M213.25 203.75H203.75V213.25H213.25V203.75Z" fill="white"/>
<path d="M213.25 213.25H203.75V222.75H213.25V213.25Z" fill="white"/>
<path d="M213.25 222.75H203.75V232.25H213.25V222.75Z" fill="white"/>
<path d="M213.25 232.25H203.75V241.75H213.25V232.25Z" fill="white"/>
<path d="M213.25 241.75H203.75V251.25H213.25V241.75Z" fill="white"/>
<path d="M213.25 251.25H203.75V260.75H213.25V251.25Z" fill="white"/>
<path d="M222.75 89.75H213.25V99.25H222.75V89.75Z" fill="white"/>
<path d="M222.75 99.25H213.25V108.75H222.75V99.25Z" fill="white"/>
<path d="M222.75 108.75H213.25V118.25H222.75V108.75Z" fill="white"/>
<path d="M222.75 137.25H213.25V146.75H222.75V137.25Z" fill="white"/>
<path d="M222.75 146.75H213.25V156.25H222.75V146.75Z" fill="white"/>
<path d="M222.75 156.25H213.25V165.75H222.75V156.25Z" fill="white"/>
<path d="M222.75 184.75H213.25V194.25H222.75V184.75Z" fill="white"/>
<path d="M222.75 194.25H213.25V203.75H222.75V194.25Z" fill="white"/>
<path d="M222.75 203.75H213.25V213.25H222.75V203.75Z" fill="white"/>
<path d="M222.75 241.75H213.25V251.25H222.75V241.75Z" fill="white"/>
<path d="M222.75 251.25H213.25V260.75H222.75V251.25Z" fill="white"/>
<path d="M222.75 279.75H213.25V289.25H222.75V279.75Z" fill="white"/>
<path d="M232.25 99.25H222.75V108.75H232.25V99.25Z" fill="white"/>
<path d="M232.25 118.25H222.75V127.75H232.25V118.25Z" fill="white"/>
<path d="M232.25 127.75H222.75V137.25H232.25V127.75Z" fill="white"/>
<path d="M232.25 156.25H222.75V165.75H232.25V156.25Z" fill="white"/>
<path d="M232.25 165.75H222.75V175.25H232.25V165.75Z" fill="white"/>
<path d="M232.25 175.25H222.75V184.75H232.25V175.25Z" fill="white"/>
<path d="M232.25 184.75H222.75V194.25H232.25V184.75Z" fill="white"/>
<path d="M232.25 203.75H222.75V213.25H232.25V203.75Z" fill="white"/>
<path d="M232.25 222.75H222.75V232.25H232.25V222.75Z" fill="white"/>
<path d="M232.25 241.75H222.75V251.25H232.25V241.75Z" fill="white"/>
<path d="M232.25 251.25H222.75V260.75H232.25V251.25Z" fill="white"/>
<path d="M232.25 260.75H222.75V270.25H232.25V260.75Z" fill="white"/>
<path d="M232.25 279.75H222.75V289.25H232.25V279.75Z" fill="white"/>
<path d="M241.75 99.25H232.25V108.75H241.75V99.25Z" fill="white"/>
<path d="M241.75 108.75H232.25V118.25H241.75V108.75Z" fill="white"/>
<path d="M241.75 127.75H232.25V137.25H241.75V127.75Z" fill="white"/>
<path d="M241.75 156.25H232.25V165.75H241.75V156.25Z" fill="white"/>
<path d="M241.75 184.75H232.25V194.25H241.75V184.75Z" fill="white"/>
<path d="M241.75 194.25H232.25V203.75H241.75V194.25Z" fill="white"/>
<path d="M241.75 203.75H232.25V213.25H241.75V203.75Z" fill="white"/>
<path d="M241.75 241.75H232.25V251.25H241.75V241.75Z" fill="white"/>
<path d="M241.75 251.25H232.25V260.75H241.75V251.25Z" fill="white"/>
<path d="M241.75 279.75H232.25V289.25H241.75V279.75Z" fill="white"/>
<path d="M251.25 108.75H241.75V118.25H251.25V108.75Z" fill="white"/>
<path d="M251.25 127.75H241.75V137.25H251.25V127.75Z" fill="white"/>
<path d="M251.25 156.25H241.75V165.75H251.25V156.25Z" fill="white"/>
<path d="M251.25 165.75H241.75V175.25H251.25V165.75Z" fill="white"/>
<path d="M251.25 175.25H241.75V184.75H251.25V175.25Z" fill="white"/>
<path d="M251.25 184.75H241.75V194.25H251.25V184.75Z" fill="white"/>
<path d="M251.25 194.25H241.75V203.75H251.25V194.25Z" fill="white"/>
<path d="M251.25 203.75H241.75V213.25H251.25V203.75Z" fill="white"/>
<path d="M251.25 213.25H241.75V222.75H251.25V213.25Z" fill="white"/>
<path d="M251.25 222.75H241.75V232.25H251.25V222.75Z" fill="white"/>
<path d="M251.25 232.25H241.75V241.75H251.25V232.25Z" fill="white"/>
<path d="M251.25 241.75H241.75V251.25H251.25V241.75Z" fill="white"/>
<path d="M260.75 99.25H251.25V108.75H260.75V99.25Z" fill="white"/>
<path d="M260.75 108.75H251.25V118.25H260.75V108.75Z" fill="white"/>
<path d="M260.75 118.25H251.25V127.75H260.75V118.25Z" fill="white"/>
<path d="M260.75 127.75H251.25V137.25H260.75V127.75Z" fill="white"/>
<path d="M260.75 146.75H251.25V156.25H260.75V146.75Z" fill="white"/>
<path d="M260.75 165.75H251.25V175.25H260.75V165.75Z" fill="white"/>
<path d="M260.75 184.75H251.25V194.25H260.75V184.75Z" fill="white"/>
<path d="M260.75 194.25H251.25V203.75H260.75V194.25Z" fill="white"/>
<path d="M260.75 203.75H251.25V213.25H260.75V203.75Z" fill="white"/>
<path d="M260.75 232.25H251.25V241.75H260.75V232.25Z" fill="white"/>
<path d="M260.75 241.75H251.25V251.25H260.75V241.75Z" fill="white"/>
<path d="M260.75 251.25H251.25V260.75H260.75V251.25Z" fill="white"/>
<path d="M260.75 260.75H251.25V270.25H260.75V260.75Z" fill="white"/>
<path d="M260.75 270.25H251.25V279.75H260.75V270.25Z" fill="white"/>
<path d="M270.25 89.75H260.75V99.25H270.25V89.75Z" fill="white"/>
<path d="M270.25 99.25H260.75V108.75H270.25V99.25Z" fill="white"/>
<path d="M270.25 118.25H260.75V127.75H270.25V118.25Z" fill="white"/>
<path d="M270.25 127.75H260.75V137.25H270.25V127.75Z" fill="white"/>
<path d="M270.25 137.25H260.75V146.75H270.25V137.25Z" fill="white"/>
<path d="M270.25 146.75H260.75V156.25H270.25V146.75Z" fill="white"/>
<path d="M270.25 165.75H260.75V175.25H270.25V165.75Z" fill="white"/>
<path d="M270.25 175.25H260.75V184.75H270.25V175.25Z" fill="white"/>
<path d="M270.25 184.75H260.75V194.25H270.25V184.75Z" fill="white"/>
<path d="M270.25 213.25H260.75V222.75H270.25V213.25Z" fill="white"/>
<path d="M270.25 241.75H260.75V251.25H270.25V241.75Z" fill="white"/>
<path d="M270.25 270.25H260.75V279.75H270.25V270.25Z" fill="white"/>
<path d="M270.25 279.75H260.75V289.25H270.25V279.75Z" fill="white"/>
<path d="M279.75 89.75H270.25V99.25H279.75V89.75Z" fill="white"/>
<path d="M279.75 99.25H270.25V108.75H279.75V99.25Z" fill="white"/>
<path d="M279.75 108.75H270.25V118.25H279.75V108.75Z" fill="white"/>
<path d="M279.75 137.25H270.25V146.75H279.75V137.25Z" fill="white"/>
<path d="M279.75 156.25H270.25V165.75H279.75V156.25Z" fill="white"/>
<path d="M279.75 165.75H270.25V175.25H279.75V165.75Z" fill="white"/>
<path d="M279.75 184.75H270.25V194.25H279.75V184.75Z" fill="white"/>
<path d="M279.75 203.75H270.25V213.25H279.75V203.75Z" fill="white"/>
<path d="M279.75 251.25H270.25V260.75H279.75V251.25Z" fill="white"/>
<path d="M289.25 99.25H279.75V108.75H289.25V99.25Z" fill="white"/>
<path d="M289.25 108.75H279.75V118.25H289.25V108.75Z" fill="white"/>
<path d="M289.25 127.75H279.75V137.25H289.25V127.75Z" fill="white"/>
<path d="M289.25 146.75H279.75V156.25H289.25V146.75Z" fill="white"/>
<path d="M289.25 203.75H279.75V213.25H289.25V203.75Z" fill="white"/>
<path d="M289.25 222.75H279.75V232.25H289.25V222.75Z" fill="white"/>
<path d="M289.25 232.25H279.75V241.75H289.25V232.25Z" fill="white"/>
<path d="M289.25 241.75H279.75V251.25H289.25V241.75Z" fill="white"/>
<path d="M289.25 251.25H279.75V260.75H289.25V251.25Z" fill="white"/>
<path d="M289.25 279.75H279.75V289.25H289.25V279.75Z" fill="white"/>
<path d="M13.75 23.25V70.75C13.75 73.2696 14.7509 75.6859 16.5325 77.4675C18.3141 79.2491 20.7304 80.25 23.25 80.25H70.75C73.2696 80.25 75.6859 79.2491 77.4675 77.4675C79.2491 75.6859 80.25 73.2696 80.25 70.75V23.25C80.25 20.7304 79.2491 18.3141 77.4675 16.5325C75.6859 14.7509 73.2696 13.75 70.75 13.75H23.25C20.7304 13.75 18.3141 14.7509 16.5325 16.5325C14.7509 18.3141 13.75 20.7304 13.75 23.25ZM28 23.25H66C67.2598 23.25 68.468 23.7504 69.3588 24.6412C70.2496 25.532 70.75 26.7402 70.75 28V66C70.75 67.2598 70.2496 68.468 69.3588 69.3588C68.468 70.2496 67.2598 70.75 66 70.75H28C26.7402 70.75 25.532 70.2496 24.6412 69.3588C23.7504 68.468 23.25 67.2598 23.25 66V28C23.25 26.7402 23.7504 25.532 24.6412 24.6412C25.532 23.7504 26.7402 23.25 28 23.25Z" fill="white"/>
<path d="M54.125 32.75H39.875C35.94 32.75 32.75 35.94 32.75 39.875V54.125C32.75 58.06 35.94 61.25 39.875 61.25H54.125C58.06 61.25 61.25 58.06 61.25 54.125V39.875C61.25 35.94 58.06 32.75 54.125 32.75Z" fill="white"/>
<path d="M279.75 13.75L232.25 13.75C229.73 13.75 227.314 14.7509 225.532 16.5325C223.751 18.3141 222.75 20.7304 222.75 23.25V70.75C222.75 73.2696 223.751 75.6859 225.532 77.4675C227.314 79.2491 229.73 80.25 232.25 80.25H279.75C282.27 80.25 284.686 79.2491 286.468 77.4675C288.249 75.6859 289.25 73.2696 289.25 70.75V23.25C289.25 20.7304 288.249 18.3141 286.468 16.5325C284.686 14.7509 282.27 13.75 279.75 13.75ZM279.75 28V66C279.75 67.2598 279.25 68.4679 278.359 69.3587C277.468 70.2495 276.26 70.75 275 70.75H237C235.74 70.75 234.532 70.2495 233.641 69.3587C232.75 68.4679 232.25 67.2598 232.25 66V28C232.25 26.7402 232.75 25.532 233.641 24.6412C234.532 23.7504 235.74 23.25 237 23.25L275 23.25C276.26 23.25 277.468 23.7504 278.359 24.6412C279.25 25.532 279.75 26.7402 279.75 28Z" fill="white"/>
<path d="M270.25 54.125V39.875C270.25 35.94 267.06 32.75 263.125 32.75H248.875C244.94 32.75 241.75 35.94 241.75 39.875V54.125C241.75 58.06 244.94 61.25 248.875 61.25H263.125C267.06 61.25 270.25 58.06 270.25 54.125Z" fill="white"/>
<path d="M23.25 289.25H70.75C73.2696 289.25 75.6859 288.249 77.4675 286.468C79.2491 284.686 80.25 282.27 80.25 279.75V232.25C80.25 229.73 79.2491 227.314 77.4675 225.532C75.6859 223.751 73.2696 222.75 70.75 222.75H23.25C20.7304 222.75 18.3141 223.751 16.5325 225.532C14.7509 227.314 13.75 229.73 13.75 232.25L13.75 279.75C13.75 282.27 14.7509 284.686 16.5325 286.468C18.3141 288.249 20.7304 289.25 23.25 289.25ZM23.25 275L23.25 237C23.25 235.74 23.7504 234.532 24.6412 233.641C25.532 232.75 26.7402 232.25 28 232.25H66C67.2598 232.25 68.4679 232.75 69.3587 233.641C70.2495 234.532 70.75 235.74 70.75 237V275C70.75 276.26 70.2495 277.468 69.3587 278.359C68.4679 279.25 67.2598 279.75 66 279.75H28C26.7402 279.75 25.532 279.25 24.6412 278.359C23.7504 277.468 23.25 276.26 23.25 275Z" fill="white"/>
<path d="M32.75 248.875V263.125C32.75 267.06 35.94 270.25 39.875 270.25H54.125C58.06 270.25 61.25 267.06 61.25 263.125V248.875C61.25 244.94 58.06 241.75 54.125 241.75H39.875C35.94 241.75 32.75 244.94 32.75 248.875Z" fill="white"/>
<g clip-path="url(#clip0_49_2)">
<path d="M163.766 127H139.234C132.478 127 127 132.478 127 139.234V163.766C127 170.522 132.478 176 139.234 176H163.766C170.522 176 176 170.522 176 163.766V139.234C176 132.478 170.522 127 163.766 127Z" fill="url(#paint0_linear_49_2)"/>
<path d="M163.766 127H139.234C132.478 127 127 132.478 127 139.234V163.766C127 170.522 132.478 176 139.234 176H163.766C170.522 176 176 170.522 176 163.766V139.234C176 132.478 170.522 127 163.766 127Z" fill="url(#paint1_radial_49_2)"/>
<path fill-rule="evenodd" clip-rule="evenodd" d="M151.902 170.038C148.227 170.038 146.519 169.501 143.55 167.355C141.672 169.77 135.725 171.657 135.466 168.428C135.466 166.005 134.93 163.957 134.321 161.722C133.597 158.967 132.774 155.9 132.774 151.456C132.774 140.841 141.484 132.855 151.804 132.855C162.132 132.855 170.225 141.235 170.225 151.554C170.26 161.714 162.062 169.984 151.902 170.038ZM152.054 142.03C147.029 141.771 143.112 145.25 142.244 150.705C141.529 155.22 142.799 160.72 143.881 161.006C144.4 161.131 145.705 160.076 146.519 159.262C147.865 160.192 149.431 160.75 151.062 160.881C156.269 161.132 160.719 157.167 161.068 151.965C161.272 146.753 157.262 142.338 152.054 142.039V142.03Z" fill="white"/>
</g>
<defs>
<linearGradient id="paint0_linear_49_2" x1="132.775" y1="164.266" x2="176" y2="151.5" gradientUnits="userSpaceOnUse">
<stop stop-color="#44CCFF"/>
<stop offset="0.662" stop-color="#5533EE"/>
<stop offset="1" stop-color="#9933DD"/>
</linearGradient>
<radialGradient id="paint1_radial_49_2" cx="0" cy="0" r="1" gradientUnits="userSpaceOnUse" gradientTransform="translate(125.834 105.48) rotate(51.356) scale(59.4623 24.5)">
<stop stop-color="#0000FF"/>
<stop offset="1" stop-opacity="0"/>
</radialGradient>
<clipPath id="clip0_49_2">
<rect width="49" height="49" fill="white" transform="translate(127 127)"/>
</clipPath>
</defs>
</svg>
