<svg width="800" height="800" viewBox="0 0 800 800" fill="none" xmlns="http://www.w3.org/2000/svg">
<path fill-rule="evenodd" clip-rule="evenodd" d="M407.713 754.962C337.251 754.962 304.506 744.689 247.587 703.594C211.584 749.825 97.5762 785.955 92.6039 724.141C92.6039 677.74 82.3173 638.529 70.6592 595.722C56.7728 542.983 41 484.252 41 399.153C41 195.906 207.985 43 405.828 43C603.842 43 758.998 203.44 758.998 401.036C759.662 595.576 602.496 753.925 407.713 754.962ZM410.628 218.679C314.278 213.714 239.186 280.321 222.557 384.77C208.841 471.24 233.186 576.544 253.93 582.023C263.874 584.42 288.905 564.215 304.506 548.634C330.303 566.433 360.344 577.123 391.599 579.626C491.433 584.422 576.738 508.513 583.441 408.913C587.343 309.102 510.477 224.562 410.628 218.85V218.679Z" fill="white"/>
</svg>
