<svg width="24" height="24" viewBox="0 0 24 24" fill="none" xmlns="http://www.w3.org/2000/svg">
<path fill-rule="evenodd" clip-rule="evenodd" d="M12.2589 23.9315C9.90029 23.9315 8.80729 23.5862 6.90892 22.2049C5.70086 23.7588 1.89262 24.9733 1.73154 22.8955C1.73154 21.3358 1.38063 20.0177 0.995206 18.5789C0.52349 16.8062 0 14.832 0 11.9715C0 5.13969 5.58006 0 12.1956 0C18.8111 0 24 5.39869 24 12.0406C24 18.6825 18.65 23.9373 12.2589 23.9373M12.3567 5.91093C9.13519 5.74402 6.62129 7.98293 6.06903 11.4938C5.60882 14.4003 6.4257 17.94 7.12177 18.1242C7.44967 18.2048 8.28955 17.5256 8.80729 17.0019C9.65868 17.5601 10.6366 17.986 11.7239 18.0436C15.0259 18.2163 17.954 15.6263 18.1323 12.3053C18.1955 10.6964 17.6263 9.12671 16.5467 7.93255C15.4671 6.7384 13.963 6.01477 12.3567 5.91669" fill="white"/>
</svg>
